<?xml version="1.0" encoding="UTF-8" standalone="no"?>
<svg xmlns:dc="http://purl.org/dc/elements/1.1/" xmlns:cc="http://creativecommons.org/ns#" xmlns:rdf="http://www.w3.org/1999/02/22-rdf-syntax-ns#" xmlns:svg="http://www.w3.org/2000/svg" xmlns="http://www.w3.org/2000/svg" xmlns:sodipodi="http://sodipodi.sourceforge.net/DTD/sodipodi-0.dtd" xmlns:inkscape="http://www.inkscape.org/namespaces/inkscape" viewBox="0 0 253 55" version="1.1" id="svg13510" sodipodi:docname="quality-reworked-capital-q.svg" inkscape:version="0.92.2 5c3e80d, 2017-08-06" width="253" height="55">
  <metadata id="metadata13514">
    <rdf:RDF>
      <cc:Work rdf:about="">
        <dc:format>image/svg+xml</dc:format>
        <dc:type rdf:resource="http://purl.org/dc/dcmitype/StillImage"/>
        <dc:title/>
      </cc:Work>
    </rdf:RDF>
  </metadata>
  <sodipodi:namedview pagecolor="#ffffff" bordercolor="#666666" borderopacity="1" objecttolerance="10" gridtolerance="10" guidetolerance="10" inkscape:pageopacity="0" inkscape:pageshadow="2" inkscape:window-width="640" inkscape:window-height="480" id="namedview13512" showgrid="false" inkscape:zoom="2.8284271" inkscape:cx="88.809705" inkscape:cy="7.1073617" inkscape:current-layer="svg13510" showguides="false" inkscape:guide-bbox="true" inkscape:snap-bbox="true" inkscape:snap-intersection-paths="true" inkscape:object-paths="true" inkscape:snap-smooth-nodes="true" inkscape:bbox-nodes="true" inkscape:snap-global="true">
    <inkscape:grid type="xygrid" id="grid14630"/>
    <sodipodi:guide position="100,20" orientation="0,1" id="guide665" inkscape:locked="false"/>
    <sodipodi:guide position="77,25" orientation="1,0" id="guide667" inkscape:locked="false"/>
  </sodipodi:namedview>
  <style id="style13428">
        .style0{
        fill:	#333;
        fill-rule:	nonzero;
        }
        .style1{
        fill:	#333;
        fill-rule:	evenodd;
        }
    </style>
  <defs id="defs13430"/>
  <g aria-label="Quality is many small things done right" style="font-style:normal;font-variant:normal;font-weight:normal;font-stretch:normal;font-size:11.4519043px;line-height:1.25;font-family:Lato;-inkscape-font-specification:Lato;letter-spacing:0px;word-spacing:0px;fill:#333333;fill-opacity:1;stroke:none;stroke-width:0.99999994" id="text50">
    <path d="m 60.989689,40.869102 q 0,0.755825 0.206134,1.35705 0.206135,0.595499 0.584047,1.013494 0.383639,0.412269 0.921879,0.635581 0.538239,0.217586 1.196724,0.217586 0.66421,0 1.20245,-0.217586 0.538239,-0.223312 0.916152,-0.635581 0.377913,-0.417995 0.584047,-1.013494 0.206134,-0.601225 0.206134,-1.35705 0,-0.755826 -0.206134,-1.357051 -0.206134,-0.601225 -0.584047,-1.013493 -0.377913,-0.417995 -0.916152,-0.641307 -0.53824,-0.223312 -1.20245,-0.223312 -0.658485,0 -1.196724,0.223312 -0.53824,0.223312 -0.921879,0.641307 -0.377912,0.412268 -0.584047,1.013493 -0.206134,0.601225 -0.206134,1.357051 z m 7.334945,5.794663 h -0.916153 q -0.206134,0 -0.366461,-0.05726 -0.160326,-0.05726 -0.292023,-0.200408 l -1.437214,-1.568911 q -0.652759,0.217586 -1.41431,0.217586 -0.904701,0 -1.649075,-0.303476 -0.744373,-0.309201 -1.276887,-0.864618 -0.532513,-0.555418 -0.824537,-1.322695 -0.292024,-0.773004 -0.292024,-1.694882 0,-0.921879 0.292024,-1.689156 0.292024,-0.773004 0.824537,-1.328421 0.532514,-0.561143 1.276887,-0.870345 0.744374,-0.309201 1.649075,-0.309201 0.9047,0 1.649074,0.309201 0.7501,0.309202 1.282613,0.870345 0.532514,0.555417 0.824537,1.328421 0.292024,0.767277 0.292024,1.689156 0,0.578321 -0.120245,1.099383 -0.114519,0.521061 -0.337831,0.973411 -0.223312,0.446625 -0.543966,0.813086 -0.320653,0.366461 -0.72147,0.63558 z" style="font-style:normal;font-variant:normal;font-weight:normal;font-stretch:normal;font-family:Lato;-inkscape-font-specification:Lato;fill:#333333;fill-opacity:1;stroke-width:0.99999994" id="path962"/>
    <path d="m 73.970065,39.168494 v 5.80039 h -0.606951 q -0.217586,0 -0.274846,-0.211861 l -0.08016,-0.624128 q -0.377913,0.417994 -0.847441,0.675662 -0.469528,0.251942 -1.076479,0.251942 -0.475254,0 -0.841715,-0.154601 -0.360735,-0.160327 -0.606951,-0.446624 -0.246216,-0.286298 -0.372187,-0.69284 -0.120245,-0.406543 -0.120245,-0.898975 v -3.698965 h 1.019219 v 3.698965 q 0,0.658485 0.29775,1.01922 0.303475,0.360735 0.921878,0.360735 0.45235,0 0.841715,-0.211861 0.395091,-0.217586 0.727196,-0.595499 v -4.27156 z" style="font-style:normal;font-variant:normal;font-weight:normal;font-stretch:normal;font-family:Lato;-inkscape-font-specification:Lato;fill:#333333;fill-opacity:1;stroke-width:0.99999994" id="path964"/>
    <path d="m 78.718489,42.357849 q -0.704292,0.0229 -1.20245,0.114519 -0.492432,0.08589 -0.807359,0.229038 -0.309202,0.143149 -0.452351,0.337832 -0.137422,0.194682 -0.137422,0.435172 0,0.229038 0.07444,0.395091 0.07444,0.166052 0.200408,0.274845 0.131697,0.103068 0.303476,0.154601 0.177504,0.04581 0.377913,0.04581 0.269119,0 0.492432,-0.05153 0.223312,-0.05726 0.417994,-0.160326 0.200408,-0.103068 0.377913,-0.246216 0.18323,-0.143149 0.355009,-0.32638 z m -3.292423,-2.370544 q 0.48098,-0.463802 1.036398,-0.69284 0.555417,-0.229038 1.231079,-0.229038 0.486706,0 0.864619,0.160327 0.377913,0.160326 0.635581,0.446624 0.257668,0.286297 0.389365,0.69284 0.131697,0.406543 0.131697,0.893249 v 3.710417 h -0.452351 q -0.148874,0 -0.229038,-0.04581 -0.08016,-0.05153 -0.125971,-0.194682 l -0.114519,-0.549692 q -0.229038,0.21186 -0.446624,0.377913 -0.217586,0.160327 -0.458076,0.274846 -0.24049,0.108793 -0.515336,0.166052 -0.26912,0.06299 -0.601225,0.06299 -0.337831,0 -0.63558,-0.09161 -0.29775,-0.09734 -0.521062,-0.286298 -0.217586,-0.188957 -0.349283,-0.475254 -0.125971,-0.292024 -0.125971,-0.687114 0,-0.343558 0.188956,-0.658485 0.188957,-0.320653 0.612677,-0.566869 0.423721,-0.246216 1.105109,-0.400817 0.681388,-0.160326 1.671978,-0.18323 v -0.45235 q 0,-0.675663 -0.292024,-1.01922 -0.292023,-0.349283 -0.853167,-0.349283 -0.377912,0 -0.63558,0.09734 -0.251942,0.09161 -0.440899,0.21186 -0.18323,0.114519 -0.320653,0.211861 -0.131697,0.09161 -0.263394,0.09161 -0.103067,0 -0.177504,-0.05153 -0.07444,-0.05726 -0.125971,-0.137423 z" style="font-style:normal;font-variant:normal;font-weight:normal;font-stretch:normal;font-family:Lato;-inkscape-font-specification:Lato;fill:#333333;fill-opacity:1;stroke-width:0.99999994" id="path966"/>
    <path d="m 82.309735,36.534556 v 8.434328 h -1.019219 v -8.434328 z" style="font-style:normal;font-variant:normal;font-weight:normal;font-stretch:normal;font-family:Lato;-inkscape-font-specification:Lato;fill:#333333;fill-opacity:1;stroke-width:0.99999994" id="path968"/>
    <path d="m 85.039047,39.168494 v 5.80039 h -1.01922 v -5.80039 z m 0.217586,-1.820853 q 0,0.148875 -0.06298,0.280572 -0.05726,0.125971 -0.160327,0.229038 -0.09734,0.09734 -0.234764,0.154601 -0.131697,0.05726 -0.280572,0.05726 -0.148875,0 -0.280571,-0.05726 -0.125971,-0.05726 -0.223313,-0.154601 -0.09734,-0.103067 -0.1546,-0.229038 -0.05726,-0.131697 -0.05726,-0.280572 0,-0.148875 0.05726,-0.280571 0.05726,-0.137423 0.1546,-0.234764 0.09734,-0.103068 0.223313,-0.160327 0.131696,-0.05726 0.280571,-0.05726 0.148875,0 0.280572,0.05726 0.137423,0.05726 0.234764,0.160327 0.103067,0.09734 0.160327,0.234764 0.06298,0.131696 0.06298,0.280571 z" style="font-style:normal;font-variant:normal;font-weight:normal;font-stretch:normal;font-family:Lato;-inkscape-font-specification:Lato;fill:#333333;fill-opacity:1;stroke-width:0.99999994" id="path970"/>
    <path d="m 88.49448,45.060499 q -0.687115,0 -1.059302,-0.383639 -0.366461,-0.383639 -0.366461,-1.105109 v -3.55009 h -0.698566 q -0.09162,0 -0.1546,-0.05153 -0.06299,-0.05726 -0.06299,-0.171778 v -0.406543 l 0.950508,-0.120245 0.234764,-1.792223 q 0.01718,-0.08589 0.07444,-0.137423 0.06299,-0.05726 0.160326,-0.05726 h 0.515336 v 1.998357 h 1.677704 v 0.738648 h -1.677704 v 3.481379 q 0,0.366461 0.177504,0.543965 0.177505,0.177505 0.458077,0.177505 0.160326,0 0.274845,-0.04008 0.120245,-0.04581 0.206135,-0.09734 0.08589,-0.05153 0.143148,-0.09161 0.06299,-0.04581 0.108794,-0.04581 0.08016,0 0.143148,0.09734 l 0.29775,0.486706 q -0.263394,0.246216 -0.635581,0.389365 -0.372187,0.137423 -0.767277,0.137423 z" style="font-style:normal;font-variant:normal;font-weight:normal;font-stretch:normal;font-family:Lato;-inkscape-font-specification:Lato;fill:#333333;fill-opacity:1;stroke-width:0.99999994" id="path972"/>
    <path d="m 95.833719,39.168494 -3.235163,7.512449 q -0.05153,0.114519 -0.131697,0.183231 -0.07444,0.06871 -0.234764,0.06871 h -0.755826 l 1.059301,-2.301833 -2.393448,-5.462558 h 0.881797 q 0.131697,0 0.206134,0.06871 0.08016,0.06299 0.108793,0.143149 l 1.551733,3.653158 q 0.09162,0.24049 0.154601,0.503883 0.08016,-0.269119 0.171779,-0.509609 l 1.505925,-3.647432 q 0.03436,-0.09161 0.114519,-0.148875 0.08589,-0.06298 0.188956,-0.06298 z" style="font-style:normal;font-variant:normal;font-weight:normal;font-stretch:normal;font-family:Lato;-inkscape-font-specification:Lato;fill:#333333;fill-opacity:1;stroke-width:0.99999994" id="path974"/>
    <path d="m 100.44991,39.168494 v 5.80039 h -1.019221 v -5.80039 z m 0.21758,-1.820853 q 0,0.148875 -0.063,0.280572 -0.0573,0.125971 -0.16033,0.229038 -0.0973,0.09734 -0.23476,0.154601 -0.1317,0.05726 -0.280573,0.05726 -0.148875,0 -0.280571,-0.05726 -0.125971,-0.05726 -0.223313,-0.154601 -0.09734,-0.103067 -0.1546,-0.229038 -0.05726,-0.131697 -0.05726,-0.280572 0,-0.148875 0.05726,-0.280571 0.05726,-0.137423 0.1546,-0.234764 0.09734,-0.103068 0.223313,-0.160327 0.131696,-0.05726 0.280571,-0.05726 0.148873,0 0.280573,0.05726 0.13742,0.05726 0.23476,0.160327 0.10307,0.09734 0.16033,0.234764 0.063,0.131696 0.063,0.280571 z" style="font-style:normal;font-variant:normal;font-weight:normal;font-stretch:normal;font-family:Lato;-inkscape-font-specification:Lato;fill:#333333;fill-opacity:1;stroke-width:0.99999994" id="path976"/>
    <path d="m 105.50288,40.124728 q -0.0687,0.125971 -0.21186,0.125971 -0.0859,0 -0.19468,-0.06299 -0.10879,-0.06299 -0.26912,-0.137422 -0.1546,-0.08016 -0.37219,-0.143149 -0.21758,-0.06871 -0.51533,-0.06871 -0.25767,0 -0.4638,0.06871 -0.20614,0.06298 -0.35501,0.177504 -0.14315,0.114519 -0.22332,0.26912 -0.0744,0.148875 -0.0744,0.326379 0,0.223312 0.12597,0.372187 0.13169,0.148875 0.34355,0.257668 0.21186,0.108793 0.48098,0.194682 0.26912,0.08016 0.5497,0.177505 0.28629,0.09162 0.55541,0.206134 0.26912,0.114519 0.48098,0.286298 0.21186,0.171778 0.33783,0.42372 0.1317,0.246216 0.1317,0.595499 0,0.400817 -0.14315,0.744374 -0.14315,0.337831 -0.42372,0.589773 -0.28057,0.246216 -0.68711,0.389365 -0.40654,0.143149 -0.93906,0.143149 -0.60695,0 -1.09938,-0.194683 -0.49243,-0.200408 -0.83599,-0.509609 l 0.24049,-0.389365 q 0.0458,-0.07444 0.10879,-0.114519 0.063,-0.04008 0.16033,-0.04008 0.10307,0 0.21759,0.08016 0.11451,0.08016 0.27484,0.177504 0.16605,0.09734 0.40082,0.177505 0.23476,0.08016 0.58405,0.08016 0.29774,0 0.52106,-0.07444 0.22331,-0.08016 0.37218,-0.21186 0.14888,-0.131697 0.21759,-0.303475 0.0744,-0.171779 0.0744,-0.366461 0,-0.24049 -0.1317,-0.395091 -0.12597,-0.160326 -0.33783,-0.26912 -0.21186,-0.114519 -0.48671,-0.194682 -0.26912,-0.08589 -0.55541,-0.177504 -0.28058,-0.09162 -0.55542,-0.206135 -0.26912,-0.120245 -0.48098,-0.297749 -0.21186,-0.177505 -0.34356,-0.435173 -0.12597,-0.263393 -0.12597,-0.63558 0,-0.332106 0.13742,-0.635581 0.13743,-0.309201 0.40082,-0.53824 0.26339,-0.234764 0.64703,-0.372186 0.38364,-0.137423 0.87607,-0.137423 0.5726,0 1.02495,0.18323 0.45808,0.177505 0.79018,0.492432 z" style="font-style:normal;font-variant:normal;font-weight:normal;font-stretch:normal;font-family:Lato;-inkscape-font-specification:Lato;fill:#333333;fill-opacity:1;stroke-width:0.99999994" id="path978"/>
    <path d="m 110.02012,44.968884 v -5.80039 h 0.61268 q 0.21759,0 0.26912,0.21186 l 0.0744,0.595499 q 0.32065,-0.39509 0.72147,-0.647032 0.40081,-0.251942 0.9276,-0.251942 0.58405,0 0.94478,0.326379 0.36647,0.326379 0.52679,0.881797 0.12597,-0.314928 0.32066,-0.543966 0.2004,-0.229038 0.44662,-0.377913 0.24622,-0.148874 0.52106,-0.217586 0.28057,-0.06871 0.56687,-0.06871 0.45808,0 0.81309,0.148875 0.36073,0.143148 0.60695,0.42372 0.25194,0.280572 0.38364,0.69284 0.13169,0.406543 0.13169,0.93333 v 3.69324 h -1.02494 v -3.69324 q 0,-0.681388 -0.29775,-1.030671 -0.29775,-0.355009 -0.8589,-0.355009 -0.25194,0 -0.48098,0.09162 -0.22331,0.08589 -0.39509,0.257668 -0.17177,0.171779 -0.27484,0.435172 -0.0973,0.257668 -0.0973,0.601225 v 3.69324 h -1.02495 v -3.69324 q 0,-0.698566 -0.28057,-1.042123 -0.28057,-0.343557 -0.81881,-0.343557 -0.37791,0 -0.69857,0.206134 -0.32065,0.200409 -0.58977,0.549692 v 4.323094 z" style="font-style:normal;font-variant:normal;font-weight:normal;font-stretch:normal;font-family:Lato;-inkscape-font-specification:Lato;fill:#333333;fill-opacity:1;stroke-width:0.99999994" id="path980"/>
    <path d="m 122.58018,42.357849 q -0.70429,0.0229 -1.20245,0.114519 -0.49243,0.08589 -0.80736,0.229038 -0.3092,0.143149 -0.45235,0.337832 -0.13742,0.194682 -0.13742,0.435172 0,0.229038 0.0744,0.395091 0.0744,0.166052 0.20041,0.274845 0.1317,0.103068 0.30348,0.154601 0.1775,0.04581 0.37791,0.04581 0.26912,0 0.49243,-0.05153 0.22332,-0.05726 0.418,-0.160326 0.20041,-0.103068 0.37791,-0.246216 0.18323,-0.143149 0.35501,-0.32638 z m -3.29242,-2.370544 q 0.48098,-0.463802 1.03639,-0.69284 0.55542,-0.229038 1.23108,-0.229038 0.48671,0 0.86462,0.160327 0.37792,0.160326 0.63558,0.446624 0.25767,0.286297 0.38937,0.69284 0.1317,0.406543 0.1317,0.893249 v 3.710417 h -0.45236 q -0.14887,0 -0.22903,-0.04581 -0.0802,-0.05153 -0.12597,-0.194682 l -0.11452,-0.549692 q -0.22904,0.21186 -0.44663,0.377913 -0.21758,0.160327 -0.45807,0.274846 -0.24049,0.108793 -0.51534,0.166052 -0.26912,0.06299 -0.60122,0.06299 -0.33784,0 -0.63558,-0.09161 -0.29775,-0.09734 -0.52107,-0.286298 -0.21758,-0.188957 -0.34928,-0.475254 -0.12597,-0.292024 -0.12597,-0.687114 0,-0.343558 0.18896,-0.658485 0.18895,-0.320653 0.61267,-0.566869 0.42372,-0.246216 1.10511,-0.400817 0.68139,-0.160326 1.67198,-0.18323 v -0.45235 q 0,-0.675663 -0.29202,-1.01922 -0.29203,-0.349283 -0.85317,-0.349283 -0.37791,0 -0.63558,0.09734 -0.25194,0.09161 -0.4409,0.21186 -0.18323,0.114519 -0.32065,0.211861 -0.1317,0.09161 -0.2634,0.09161 -0.10306,0 -0.1775,-0.05153 -0.0744,-0.05726 -0.12597,-0.137423 z" style="font-style:normal;font-variant:normal;font-weight:normal;font-stretch:normal;font-family:Lato;-inkscape-font-specification:Lato;fill:#333333;fill-opacity:1;stroke-width:0.99999994" id="path982"/>
    <path d="m 126.07981,40.010209 q 0.18896,-0.21186 0.40082,-0.383639 0.21186,-0.171778 0.44662,-0.292023 0.24049,-0.125971 0.50388,-0.188957 0.26912,-0.06871 0.57832,-0.06871 0.47526,0 0.83599,0.160326 0.36646,0.154601 0.60695,0.446625 0.24622,0.286297 0.37219,0.69284 0.12597,0.406542 0.12597,0.898974 v 3.69324 h -1.02494 v -3.69324 q 0,-0.658484 -0.30348,-1.019219 -0.29775,-0.366461 -0.91042,-0.366461 -0.45235,0 -0.84745,0.217586 -0.38936,0.217586 -0.72147,0.589773 v 4.271561 h -1.02494 v -5.80039 h 0.61268 q 0.21758,0 0.26912,0.21186 z" style="font-style:normal;font-variant:normal;font-weight:normal;font-stretch:normal;font-family:Lato;-inkscape-font-specification:Lato;fill:#333333;fill-opacity:1;stroke-width:0.99999994" id="path984"/>
    <path d="m 136.38509,39.168494 -3.23517,7.512449 q -0.0515,0.114519 -0.13169,0.183231 -0.0744,0.06871 -0.23477,0.06871 h -0.75582 l 1.0593,-2.301833 -2.39345,-5.462558 h 0.8818 q 0.13169,0 0.20613,0.06871 0.0802,0.06299 0.10879,0.143149 l 1.55174,3.653158 q 0.0916,0.24049 0.1546,0.503883 0.0802,-0.269119 0.17178,-0.509609 l 1.50592,-3.647432 q 0.0344,-0.09161 0.11452,-0.148875 0.0859,-0.06298 0.18896,-0.06298 z" style="font-style:normal;font-variant:normal;font-weight:normal;font-stretch:normal;font-family:Lato;-inkscape-font-specification:Lato;fill:#333333;fill-opacity:1;stroke-width:0.99999994" id="path986"/>
    <path d="m 143.30311,40.124728 q -0.0687,0.125971 -0.21186,0.125971 -0.0859,0 -0.19468,-0.06299 -0.10879,-0.06299 -0.26912,-0.137422 -0.1546,-0.08016 -0.37219,-0.143149 -0.21758,-0.06871 -0.51533,-0.06871 -0.25767,0 -0.4638,0.06871 -0.20614,0.06298 -0.35501,0.177504 -0.14315,0.114519 -0.22331,0.26912 -0.0744,0.148875 -0.0744,0.326379 0,0.223312 0.12597,0.372187 0.1317,0.148875 0.34356,0.257668 0.21186,0.108793 0.48098,0.194682 0.26912,0.08016 0.54969,0.177505 0.2863,0.09162 0.55542,0.206134 0.26912,0.114519 0.48098,0.286298 0.21186,0.171778 0.33783,0.42372 0.13169,0.246216 0.13169,0.595499 0,0.400817 -0.14315,0.744374 -0.14314,0.337831 -0.42372,0.589773 -0.28057,0.246216 -0.68711,0.389365 -0.40654,0.143149 -0.93906,0.143149 -0.60695,0 -1.09938,-0.194683 -0.49243,-0.200408 -0.83599,-0.509609 l 0.24049,-0.389365 q 0.0458,-0.07444 0.10879,-0.114519 0.063,-0.04008 0.16033,-0.04008 0.10307,0 0.21759,0.08016 0.11452,0.08016 0.27484,0.177504 0.16606,0.09734 0.40082,0.177505 0.23476,0.08016 0.58405,0.08016 0.29775,0 0.52106,-0.07444 0.22331,-0.08016 0.37219,-0.21186 0.14887,-0.131697 0.21758,-0.303475 0.0744,-0.171779 0.0744,-0.366461 0,-0.24049 -0.1317,-0.395091 -0.12597,-0.160326 -0.33783,-0.26912 -0.21186,-0.114519 -0.4867,-0.194682 -0.26912,-0.08589 -0.55542,-0.177504 -0.28057,-0.09162 -0.55542,-0.206135 -0.26912,-0.120245 -0.48098,-0.297749 -0.21186,-0.177505 -0.34356,-0.435173 -0.12597,-0.263393 -0.12597,-0.63558 0,-0.332106 0.13743,-0.635581 0.13742,-0.309201 0.40081,-0.53824 0.2634,-0.234764 0.64703,-0.372186 0.38364,-0.137423 0.87608,-0.137423 0.57259,0 1.02494,0.18323 0.45808,0.177505 0.79018,0.492432 z" style="font-style:normal;font-variant:normal;font-weight:normal;font-stretch:normal;font-family:Lato;-inkscape-font-specification:Lato;fill:#333333;fill-opacity:1;stroke-width:0.99999994" id="path988"/>
    <path d="m 144.89028,44.968884 v -5.80039 h 0.61268 q 0.21758,0 0.26912,0.21186 l 0.0744,0.595499 q 0.32066,-0.39509 0.72147,-0.647032 0.40082,-0.251942 0.92761,-0.251942 0.58404,0 0.94478,0.326379 0.36646,0.326379 0.52679,0.881797 0.12597,-0.314928 0.32065,-0.543966 0.20041,-0.229038 0.44662,-0.377913 0.24622,-0.148874 0.52107,-0.217586 0.28057,-0.06871 0.56687,-0.06871 0.45807,0 0.81308,0.148875 0.36074,0.143148 0.60695,0.42372 0.25194,0.280572 0.38364,0.69284 0.1317,0.406543 0.1317,0.93333 v 3.69324 h -1.02495 v -3.69324 q 0,-0.681388 -0.29775,-1.030671 -0.29775,-0.355009 -0.85889,-0.355009 -0.25194,0 -0.48098,0.09162 -0.22331,0.08589 -0.39509,0.257668 -0.17178,0.171779 -0.27485,0.435172 -0.0973,0.257668 -0.0973,0.601225 v 3.69324 h -1.02494 v -3.69324 q 0,-0.698566 -0.28057,-1.042123 -0.28058,-0.343557 -0.81882,-0.343557 -0.37791,0 -0.69856,0.206134 -0.32066,0.200409 -0.58978,0.549692 v 4.323094 z" style="font-style:normal;font-variant:normal;font-weight:normal;font-stretch:normal;font-family:Lato;-inkscape-font-specification:Lato;fill:#333333;fill-opacity:1;stroke-width:0.99999994" id="path990"/>
    <path d="m 157.45033,42.357849 q -0.70429,0.0229 -1.20245,0.114519 -0.49243,0.08589 -0.80736,0.229038 -0.3092,0.143149 -0.45235,0.337832 -0.13742,0.194682 -0.13742,0.435172 0,0.229038 0.0744,0.395091 0.0744,0.166052 0.2004,0.274845 0.1317,0.103068 0.30348,0.154601 0.1775,0.04581 0.37791,0.04581 0.26912,0 0.49243,-0.05153 0.22332,-0.05726 0.418,-0.160326 0.20041,-0.103068 0.37791,-0.246216 0.18323,-0.143149 0.35501,-0.32638 z m -3.29242,-2.370544 q 0.48098,-0.463802 1.0364,-0.69284 0.55541,-0.229038 1.23108,-0.229038 0.4867,0 0.86461,0.160327 0.37792,0.160326 0.63558,0.446624 0.25767,0.286297 0.38937,0.69284 0.1317,0.406543 0.1317,0.893249 v 3.710417 h -0.45235 q -0.14888,0 -0.22904,-0.04581 -0.0802,-0.05153 -0.12597,-0.194682 l -0.11452,-0.549692 q -0.22904,0.21186 -0.44663,0.377913 -0.21758,0.160327 -0.45807,0.274846 -0.24049,0.108793 -0.51534,0.166052 -0.26912,0.06299 -0.60122,0.06299 -0.33783,0 -0.63558,-0.09161 -0.29775,-0.09734 -0.52107,-0.286298 -0.21758,-0.188957 -0.34928,-0.475254 -0.12597,-0.292024 -0.12597,-0.687114 0,-0.343558 0.18896,-0.658485 0.18895,-0.320653 0.61267,-0.566869 0.42372,-0.246216 1.10511,-0.400817 0.68139,-0.160326 1.67198,-0.18323 v -0.45235 q 0,-0.675663 -0.29202,-1.01922 -0.29203,-0.349283 -0.85317,-0.349283 -0.37791,0 -0.63558,0.09734 -0.25194,0.09161 -0.4409,0.21186 -0.18323,0.114519 -0.32065,0.211861 -0.1317,0.09161 -0.2634,0.09161 -0.10306,0 -0.1775,-0.05153 -0.0744,-0.05726 -0.12597,-0.137423 z" style="font-style:normal;font-variant:normal;font-weight:normal;font-stretch:normal;font-family:Lato;-inkscape-font-specification:Lato;fill:#333333;fill-opacity:1;stroke-width:0.99999994" id="path992"/>
    <path d="m 161.04158,36.534556 v 8.434328 h -1.01922 v -8.434328 z" style="font-style:normal;font-variant:normal;font-weight:normal;font-stretch:normal;font-family:Lato;-inkscape-font-specification:Lato;fill:#333333;fill-opacity:1;stroke-width:0.99999994" id="path994"/>
    <path d="m 163.74799,36.534556 v 8.434328 h -1.01922 v -8.434328 z" style="font-style:normal;font-variant:normal;font-weight:normal;font-stretch:normal;font-family:Lato;-inkscape-font-specification:Lato;fill:#333333;fill-opacity:1;stroke-width:0.99999994" id="path996"/>
    <path d="m 170.11166,45.060499 q -0.68711,0 -1.0593,-0.383639 -0.36646,-0.383639 -0.36646,-1.105109 v -3.55009 h -0.69857 q -0.0916,0 -0.1546,-0.05153 -0.063,-0.05726 -0.063,-0.171778 v -0.406543 l 0.95051,-0.120245 0.23476,-1.792223 q 0.0172,-0.08589 0.0744,-0.137423 0.063,-0.05726 0.16032,-0.05726 h 0.51534 v 1.998357 h 1.6777 v 0.738648 h -1.6777 v 3.481379 q 0,0.366461 0.17751,0.543965 0.1775,0.177505 0.45807,0.177505 0.16033,0 0.27485,-0.04008 0.12024,-0.04581 0.20613,-0.09734 0.0859,-0.05153 0.14315,-0.09161 0.063,-0.04581 0.10879,-0.04581 0.0802,0 0.14315,0.09734 l 0.29775,0.486706 q -0.26339,0.246216 -0.63558,0.389365 -0.37219,0.137423 -0.76728,0.137423 z" style="font-style:normal;font-variant:normal;font-weight:normal;font-stretch:normal;font-family:Lato;-inkscape-font-specification:Lato;fill:#333333;fill-opacity:1;stroke-width:0.99999994" id="path998"/>
    <path d="m 173.47137,39.941498 q 0.37219,-0.395091 0.82454,-0.629855 0.45235,-0.234764 1.04212,-0.234764 0.47525,0 0.83599,0.160326 0.36646,0.154601 0.60695,0.446625 0.24622,0.286297 0.37219,0.69284 0.12597,0.406542 0.12597,0.898974 v 3.69324 h -1.02495 v -3.69324 q 0,-0.658484 -0.30347,-1.019219 -0.29775,-0.366461 -0.91043,-0.366461 -0.45235,0 -0.84744,0.217586 -0.38937,0.217586 -0.72147,0.589773 v 4.271561 h -1.02495 v -8.434328 h 1.02495 z" style="font-style:normal;font-variant:normal;font-weight:normal;font-stretch:normal;font-family:Lato;-inkscape-font-specification:Lato;fill:#333333;fill-opacity:1;stroke-width:0.99999994" id="path1000"/>
    <path d="m 179.91986,39.168494 v 5.80039 h -1.01922 v -5.80039 z m 0.21759,-1.820853 q 0,0.148875 -0.063,0.280572 -0.0573,0.125971 -0.16033,0.229038 -0.0973,0.09734 -0.23476,0.154601 -0.1317,0.05726 -0.28057,0.05726 -0.14888,0 -0.28057,-0.05726 -0.12597,-0.05726 -0.22331,-0.154601 -0.0974,-0.103067 -0.15461,-0.229038 -0.0573,-0.131697 -0.0573,-0.280572 0,-0.148875 0.0573,-0.280571 0.0573,-0.137423 0.15461,-0.234764 0.0973,-0.103068 0.22331,-0.160327 0.13169,-0.05726 0.28057,-0.05726 0.14887,0 0.28057,0.05726 0.13742,0.05726 0.23476,0.160327 0.10307,0.09734 0.16033,0.234764 0.063,0.131696 0.063,0.280571 z" style="font-style:normal;font-variant:normal;font-weight:normal;font-stretch:normal;font-family:Lato;-inkscape-font-specification:Lato;fill:#333333;fill-opacity:1;stroke-width:0.99999994" id="path1002"/>
    <path d="m 182.55649,40.010209 q 0.18895,-0.21186 0.40081,-0.383639 0.21186,-0.171778 0.44663,-0.292023 0.24049,-0.125971 0.50388,-0.188957 0.26912,-0.06871 0.57832,-0.06871 0.47526,0 0.83599,0.160326 0.36646,0.154601 0.60695,0.446625 0.24622,0.286297 0.37219,0.69284 0.12597,0.406542 0.12597,0.898974 v 3.69324 h -1.02495 v -3.69324 q 0,-0.658484 -0.30347,-1.019219 -0.29775,-0.366461 -0.91043,-0.366461 -0.45235,0 -0.84744,0.217586 -0.38936,0.217586 -0.72147,0.589773 v 4.271561 h -1.02494 v -5.80039 h 0.61267 q 0.21759,0 0.26912,0.21186 z" style="font-style:normal;font-variant:normal;font-weight:normal;font-stretch:normal;font-family:Lato;-inkscape-font-specification:Lato;fill:#333333;fill-opacity:1;stroke-width:0.99999994" id="path1004"/>
    <path d="m 190.01275,42.134537 q 0.3092,0 0.54397,-0.08589 0.23476,-0.08589 0.39509,-0.24049 0.16032,-0.154601 0.24049,-0.366461 0.0802,-0.217586 0.0802,-0.475254 0,-0.532514 -0.32638,-0.847441 -0.32065,-0.314927 -0.93333,-0.314927 -0.6184,0 -0.94478,0.314927 -0.32065,0.314927 -0.32065,0.847441 0,0.257668 0.0802,0.475254 0.0859,0.21186 0.24622,0.366461 0.16032,0.154601 0.39509,0.24049 0.23476,0.08589 0.54396,0.08589 z m 1.83803,3.149274 q 0,-0.21186 -0.12024,-0.343557 -0.12025,-0.131697 -0.32638,-0.206135 -0.20041,-0.07444 -0.46953,-0.103067 -0.26912,-0.03435 -0.57259,-0.05153 -0.29775,-0.01718 -0.60696,-0.03436 -0.3092,-0.01718 -0.59549,-0.05726 -0.32066,0.148874 -0.52679,0.377912 -0.20041,0.223313 -0.20041,0.526788 0,0.194682 0.0973,0.360735 0.10307,0.171779 0.3092,0.292024 0.20614,0.12597 0.51534,0.194682 0.31492,0.07444 0.73865,0.07444 0.41226,0 0.73864,-0.07444 0.32638,-0.07444 0.54969,-0.21186 0.22904,-0.137423 0.34929,-0.32638 0.12024,-0.188956 0.12024,-0.417994 z m 1.0364,-5.886279 v 0.377913 q 0,0.188956 -0.24049,0.24049 l -0.65848,0.08589 q 0.19468,0.377913 0.19468,0.835989 0,0.423721 -0.16605,0.773004 -0.16033,0.343557 -0.44663,0.589773 -0.2863,0.246216 -0.68711,0.377913 -0.40082,0.131697 -0.87035,0.131697 -0.40654,0 -0.76728,-0.09734 -0.18323,0.114519 -0.28057,0.246216 -0.0973,0.125971 -0.0973,0.257668 0,0.206134 0.16605,0.314928 0.17178,0.103067 0.44663,0.148874 0.27484,0.04581 0.62413,0.05726 0.35501,0.01145 0.72147,0.04008 0.37218,0.0229 0.72147,0.08589 0.35501,0.06299 0.62985,0.206134 0.27485,0.143149 0.4409,0.395091 0.17178,0.251942 0.17178,0.652758 0,0.372187 -0.18896,0.72147 -0.18323,0.349283 -0.53251,0.618403 -0.34928,0.274846 -0.85889,0.435172 -0.50389,0.166053 -1.13947,0.166053 -0.63558,0 -1.11083,-0.125971 -0.47526,-0.125971 -0.79018,-0.337831 -0.31493,-0.21186 -0.47526,-0.492432 -0.1546,-0.274846 -0.1546,-0.578321 0,-0.429447 0.26912,-0.727196 0.26912,-0.29775 0.73865,-0.475254 -0.25767,-0.114519 -0.41227,-0.303476 -0.14888,-0.194682 -0.14888,-0.521061 0,-0.125971 0.0458,-0.257668 0.0458,-0.137423 0.13743,-0.26912 0.0973,-0.137423 0.23476,-0.257668 0.13742,-0.120245 0.32065,-0.21186 -0.42944,-0.24049 -0.66993,-0.635581 -0.24049,-0.400816 -0.24049,-0.927604 0,-0.42372 0.16032,-0.767277 0.16606,-0.349283 0.45808,-0.589773 0.29202,-0.246216 0.69284,-0.377913 0.40654,-0.131697 0.88752,-0.131697 0.37791,0 0.70429,0.08589 0.32638,0.08016 0.5955,0.24049 z" style="font-style:normal;font-variant:normal;font-weight:normal;font-stretch:normal;font-family:Lato;-inkscape-font-specification:Lato;fill:#333333;fill-opacity:1;stroke-width:0.99999994" id="path1006"/>
    <path d="m 197.31942,40.124728 q -0.0687,0.125971 -0.21186,0.125971 -0.0859,0 -0.19468,-0.06299 -0.1088,-0.06299 -0.26912,-0.137422 -0.1546,-0.08016 -0.37219,-0.143149 -0.21759,-0.06871 -0.51534,-0.06871 -0.25766,0 -0.4638,0.06871 -0.20613,0.06298 -0.35501,0.177504 -0.14315,0.114519 -0.22331,0.26912 -0.0744,0.148875 -0.0744,0.326379 0,0.223312 0.12597,0.372187 0.1317,0.148875 0.34356,0.257668 0.21186,0.108793 0.48098,0.194682 0.26912,0.08016 0.54969,0.177505 0.2863,0.09162 0.55542,0.206134 0.26912,0.114519 0.48098,0.286298 0.21186,0.171778 0.33783,0.42372 0.1317,0.246216 0.1317,0.595499 0,0.400817 -0.14315,0.744374 -0.14315,0.337831 -0.42372,0.589773 -0.28057,0.246216 -0.68712,0.389365 -0.40654,0.143149 -0.93905,0.143149 -0.60695,0 -1.09939,-0.194683 -0.49243,-0.200408 -0.83598,-0.509609 l 0.24049,-0.389365 q 0.0458,-0.07444 0.10879,-0.114519 0.063,-0.04008 0.16033,-0.04008 0.10306,0 0.21758,0.08016 0.11452,0.08016 0.27485,0.177504 0.16605,0.09734 0.40081,0.177505 0.23477,0.08016 0.58405,0.08016 0.29775,0 0.52106,-0.07444 0.22332,-0.08016 0.37219,-0.21186 0.14887,-0.131697 0.21759,-0.303475 0.0744,-0.171779 0.0744,-0.366461 0,-0.24049 -0.13169,-0.395091 -0.12597,-0.160326 -0.33783,-0.26912 -0.21186,-0.114519 -0.48671,-0.194682 -0.26912,-0.08589 -0.55542,-0.177504 -0.28057,-0.09162 -0.55542,-0.206135 -0.26912,-0.120245 -0.48098,-0.297749 -0.21186,-0.177505 -0.34355,-0.435173 -0.12597,-0.263393 -0.12597,-0.63558 0,-0.332106 0.13742,-0.635581 0.13742,-0.309201 0.40082,-0.53824 0.26339,-0.234764 0.64703,-0.372186 0.38364,-0.137423 0.87607,-0.137423 0.57259,0 1.02494,0.18323 0.45808,0.177505 0.79019,0.492432 z" style="font-style:normal;font-variant:normal;font-weight:normal;font-stretch:normal;font-family:Lato;-inkscape-font-specification:Lato;fill:#333333;fill-opacity:1;stroke-width:0.99999994" id="path1008"/>
    <path d="m 205.61579,40.548448 q -0.2863,-0.383638 -0.6184,-0.532513 -0.33211,-0.154601 -0.74438,-0.154601 -0.80736,0 -1.24253,0.578321 -0.43517,0.578322 -0.43517,1.649075 0,0.566869 0.0973,0.973411 0.0973,0.400817 0.2863,0.664211 0.18895,0.257668 0.4638,0.377913 0.27484,0.120245 0.62413,0.120245 0.50388,0 0.87607,-0.229038 0.37791,-0.229038 0.69284,-0.647033 z m 1.01922,-4.013892 v 8.434328 h -0.60695 q -0.21759,0 -0.27485,-0.211861 l -0.0916,-0.704292 q -0.37219,0.446624 -0.84744,0.72147 -0.47526,0.274846 -1.09939,0.274846 -0.49816,0 -0.9047,-0.188957 -0.40654,-0.194682 -0.69284,-0.566869 -0.2863,-0.372187 -0.4409,-0.927604 -0.1546,-0.555417 -0.1546,-1.276887 0,-0.641307 0.17178,-1.190998 0.17178,-0.555418 0.49243,-0.96196 0.32066,-0.406543 0.78446,-0.635581 0.46953,-0.234764 1.05357,-0.234764 0.53252,0 0.91043,0.18323 0.38364,0.177505 0.68139,0.498158 v -3.212259 z" style="font-style:normal;font-variant:normal;font-weight:normal;font-stretch:normal;font-family:Lato;-inkscape-font-specification:Lato;fill:#333333;fill-opacity:1;stroke-width:0.99999994" id="path1010"/>
    <path d="m 210.70097,39.076879 q 0.63558,0 1.14519,0.21186 0.50961,0.21186 0.87034,0.601225 0.36074,0.389365 0.54969,0.944782 0.19469,0.549691 0.19469,1.23108 0,0.687114 -0.19469,1.236805 -0.18895,0.549692 -0.54969,0.939057 -0.36073,0.389364 -0.87034,0.601225 -0.50961,0.206134 -1.14519,0.206134 -0.64131,0 -1.15664,-0.206134 -0.50961,-0.211861 -0.87035,-0.601225 -0.36073,-0.389365 -0.55542,-0.939057 -0.18895,-0.549691 -0.18895,-1.236805 0,-0.681389 0.18895,-1.23108 0.19469,-0.555417 0.55542,-0.944782 0.36074,-0.389365 0.87035,-0.601225 0.51533,-0.21186 1.15664,-0.21186 z m 0,5.17626 q 0.85889,0 1.28261,-0.572595 0.42372,-0.578321 0.42372,-1.608992 0,-1.036398 -0.42372,-1.614719 -0.42372,-0.578321 -1.28261,-0.578321 -0.43517,0 -0.76155,0.148875 -0.32066,0.148875 -0.53824,0.429446 -0.21186,0.280572 -0.32066,0.69284 -0.10306,0.406543 -0.10306,0.921879 0,1.030671 0.42372,1.608992 0.42944,0.572595 1.29979,0.572595 z" style="font-style:normal;font-variant:normal;font-weight:normal;font-stretch:normal;font-family:Lato;-inkscape-font-specification:Lato;fill:#333333;fill-opacity:1;stroke-width:0.99999994" id="path1012"/>
    <path d="m 215.70438,40.010209 q 0.18896,-0.21186 0.40082,-0.383639 0.21186,-0.171778 0.44662,-0.292023 0.24049,-0.125971 0.50389,-0.188957 0.26912,-0.06871 0.57832,-0.06871 0.47525,0 0.83599,0.160326 0.36646,0.154601 0.60695,0.446625 0.24621,0.286297 0.37218,0.69284 0.12598,0.406542 0.12598,0.898974 v 3.69324 h -1.02495 v -3.69324 q 0,-0.658484 -0.30348,-1.019219 -0.29775,-0.366461 -0.91042,-0.366461 -0.45235,0 -0.84744,0.217586 -0.38937,0.217586 -0.72147,0.589773 v 4.271561 h -1.02495 v -5.80039 h 0.61268 q 0.21758,0 0.26912,0.21186 z" style="font-style:normal;font-variant:normal;font-weight:normal;font-stretch:normal;font-family:Lato;-inkscape-font-specification:Lato;fill:#333333;fill-opacity:1;stroke-width:0.99999994" id="path1014"/>
    <path d="m 225.02157,41.435971 q 0,-0.355009 -0.10306,-0.647033 -0.0973,-0.297749 -0.29203,-0.509609 -0.18895,-0.217586 -0.4638,-0.332106 -0.27484,-0.120245 -0.62413,-0.120245 -0.73292,0 -1.16237,0.429447 -0.42372,0.42372 -0.52678,1.179546 z m 0.82454,2.719827 q -0.18895,0.229038 -0.45235,0.400817 -0.26339,0.166053 -0.56687,0.274846 -0.29775,0.108793 -0.6184,0.160326 -0.32065,0.05726 -0.63558,0.05726 -0.60123,0 -1.11084,-0.200408 -0.50388,-0.206135 -0.87607,-0.5955 -0.36646,-0.39509 -0.57259,-0.973411 -0.20614,-0.578322 -0.20614,-1.328421 0,-0.606951 0.18323,-1.133739 0.18896,-0.526787 0.53824,-0.910426 0.34929,-0.389365 0.85317,-0.606951 0.50388,-0.223312 1.13374,-0.223312 0.52106,0 0.96196,0.177504 0.44662,0.171779 0.76728,0.503884 0.32638,0.326379 0.50961,0.813085 0.18323,0.48098 0.18323,1.099383 0,0.24049 -0.0515,0.320653 -0.0515,0.08016 -0.19468,0.08016 h -3.87647 q 0.0172,0.549691 0.14888,0.956234 0.13742,0.406542 0.37791,0.681388 0.24049,0.26912 0.57259,0.406543 0.33211,0.131697 0.74438,0.131697 0.38364,0 0.65848,-0.08589 0.28057,-0.09161 0.48098,-0.194682 0.20041,-0.103067 0.33211,-0.188957 0.13742,-0.09161 0.23476,-0.09161 0.12597,0 0.19468,0.09734 z" style="font-style:normal;font-variant:normal;font-weight:normal;font-stretch:normal;font-family:Lato;-inkscape-font-specification:Lato;fill:#333333;fill-opacity:1;stroke-width:0.99999994" id="path1016"/>
    <path d="m 231.07624,40.330862 q 0.27485,-0.595499 0.67566,-0.927604 0.40082,-0.337831 0.97914,-0.337831 0.18323,0 0.34929,0.04008 0.17177,0.04008 0.30347,0.12597 l -0.0744,0.761552 q -0.0343,0.143149 -0.17178,0.143149 -0.0802,0 -0.23476,-0.03436 -0.1546,-0.03436 -0.34928,-0.03436 -0.27485,0 -0.49243,0.08016 -0.21186,0.08016 -0.38364,0.24049 -0.16606,0.154601 -0.30348,0.389365 -0.1317,0.229038 -0.24049,0.526787 v 3.66461 h -1.02494 v -5.80039 h 0.58404 q 0.16606,0 0.22904,0.06298 0.063,0.06299 0.0859,0.217587 z" style="font-style:normal;font-variant:normal;font-weight:normal;font-stretch:normal;font-family:Lato;-inkscape-font-specification:Lato;fill:#333333;fill-opacity:1;stroke-width:0.99999994" id="path1018"/>
    <path d="m 235.3453,39.168494 v 5.80039 h -1.01922 v -5.80039 z m 0.21758,-1.820853 q 0,0.148875 -0.063,0.280572 -0.0573,0.125971 -0.16033,0.229038 -0.0973,0.09734 -0.23476,0.154601 -0.1317,0.05726 -0.28057,0.05726 -0.14888,0 -0.28057,-0.05726 -0.12598,-0.05726 -0.22332,-0.154601 -0.0973,-0.103067 -0.1546,-0.229038 -0.0573,-0.131697 -0.0573,-0.280572 0,-0.148875 0.0573,-0.280571 0.0573,-0.137423 0.1546,-0.234764 0.0973,-0.103068 0.22332,-0.160327 0.13169,-0.05726 0.28057,-0.05726 0.14887,0 0.28057,0.05726 0.13742,0.05726 0.23476,0.160327 0.10307,0.09734 0.16033,0.234764 0.063,0.131696 0.063,0.280571 z" style="font-style:normal;font-variant:normal;font-weight:normal;font-stretch:normal;font-family:Lato;-inkscape-font-specification:Lato;fill:#333333;fill-opacity:1;stroke-width:0.99999994" id="path1020"/>
    <path d="m 239.04121,42.134537 q 0.3092,0 0.54397,-0.08589 0.23476,-0.08589 0.39509,-0.24049 0.16032,-0.154601 0.24049,-0.366461 0.0802,-0.217586 0.0802,-0.475254 0,-0.532514 -0.32638,-0.847441 -0.32065,-0.314927 -0.93333,-0.314927 -0.6184,0 -0.94478,0.314927 -0.32066,0.314927 -0.32066,0.847441 0,0.257668 0.0802,0.475254 0.0859,0.21186 0.24621,0.366461 0.16033,0.154601 0.39509,0.24049 0.23477,0.08589 0.54397,0.08589 z m 1.83803,3.149274 q 0,-0.21186 -0.12024,-0.343557 -0.12025,-0.131697 -0.32638,-0.206135 -0.20041,-0.07444 -0.46953,-0.103067 -0.26912,-0.03435 -0.5726,-0.05153 -0.29775,-0.01718 -0.60695,-0.03436 -0.3092,-0.01718 -0.5955,-0.05726 -0.32065,0.148874 -0.52678,0.377912 -0.20041,0.223313 -0.20041,0.526788 0,0.194682 0.0973,0.360735 0.10307,0.171779 0.3092,0.292024 0.20613,0.12597 0.51534,0.194682 0.31492,0.07444 0.73864,0.07444 0.41227,0 0.73865,-0.07444 0.32638,-0.07444 0.54969,-0.21186 0.22904,-0.137423 0.34929,-0.32638 0.12024,-0.188956 0.12024,-0.417994 z m 1.0364,-5.886279 v 0.377913 q 0,0.188956 -0.24049,0.24049 l -0.65849,0.08589 q 0.19469,0.377913 0.19469,0.835989 0,0.423721 -0.16606,0.773004 -0.16032,0.343557 -0.44662,0.589773 -0.2863,0.246216 -0.68712,0.377913 -0.40081,0.131697 -0.87034,0.131697 -0.40654,0 -0.76728,-0.09734 -0.18323,0.114519 -0.28057,0.246216 -0.0973,0.125971 -0.0973,0.257668 0,0.206134 0.16605,0.314928 0.17178,0.103067 0.44663,0.148874 0.27484,0.04581 0.62412,0.05726 0.35501,0.01145 0.72147,0.04008 0.37219,0.0229 0.72147,0.08589 0.35501,0.06299 0.62986,0.206134 0.27485,0.143149 0.4409,0.395091 0.17178,0.251942 0.17178,0.652758 0,0.372187 -0.18896,0.72147 -0.18323,0.349283 -0.53251,0.618403 -0.34929,0.274846 -0.8589,0.435172 -0.50388,0.166053 -1.13946,0.166053 -0.63558,0 -1.11084,-0.125971 -0.47525,-0.125971 -0.79018,-0.337831 -0.31492,-0.21186 -0.47525,-0.492432 -0.1546,-0.274846 -0.1546,-0.578321 0,-0.429447 0.26912,-0.727196 0.26912,-0.29775 0.73865,-0.475254 -0.25767,-0.114519 -0.41227,-0.303476 -0.14888,-0.194682 -0.14888,-0.521061 0,-0.125971 0.0458,-0.257668 0.0458,-0.137423 0.13742,-0.26912 0.0973,-0.137423 0.23477,-0.257668 0.13742,-0.120245 0.32065,-0.21186 -0.42945,-0.24049 -0.66994,-0.635581 -0.24049,-0.400816 -0.24049,-0.927604 0,-0.42372 0.16033,-0.767277 0.16605,-0.349283 0.45808,-0.589773 0.29202,-0.246216 0.69284,-0.377913 0.40654,-0.131697 0.88752,-0.131697 0.37791,0 0.70429,0.08589 0.32638,0.08016 0.5955,0.24049 z" style="font-style:normal;font-variant:normal;font-weight:normal;font-stretch:normal;font-family:Lato;-inkscape-font-specification:Lato;fill:#333333;fill-opacity:1;stroke-width:0.99999994" id="path1022"/>
    <path d="m 243.99452,39.941498 q 0.37219,-0.395091 0.82454,-0.629855 0.45235,-0.234764 1.04213,-0.234764 0.47525,0 0.83598,0.160326 0.36647,0.154601 0.60696,0.446625 0.24621,0.286297 0.37218,0.69284 0.12597,0.406542 0.12597,0.898974 v 3.69324 h -1.02494 v -3.69324 q 0,-0.658484 -0.30348,-1.019219 -0.29775,-0.366461 -0.91042,-0.366461 -0.45235,0 -0.84745,0.217586 -0.38936,0.217586 -0.72147,0.589773 v 4.271561 h -1.02494 v -8.434328 h 1.02494 z" style="font-style:normal;font-variant:normal;font-weight:normal;font-stretch:normal;font-family:Lato;-inkscape-font-specification:Lato;fill:#333333;fill-opacity:1;stroke-width:0.99999994" id="path1024"/>
    <path d="m 251.05785,45.060499 q -0.68712,0 -1.05931,-0.383639 -0.36646,-0.383639 -0.36646,-1.105109 v -3.55009 h -0.69856 q -0.0916,0 -0.1546,-0.05153 -0.063,-0.05726 -0.063,-0.171778 v -0.406543 l 0.95051,-0.120245 0.23476,-1.792223 q 0.0172,-0.08589 0.0744,-0.137423 0.063,-0.05726 0.16033,-0.05726 h 0.51533 v 1.998357 h 1.67771 v 0.738648 h -1.67771 v 3.481379 q 0,0.366461 0.17751,0.543965 0.1775,0.177505 0.45807,0.177505 0.16033,0 0.27485,-0.04008 0.12024,-0.04581 0.20613,-0.09734 0.0859,-0.05153 0.14315,-0.09161 0.063,-0.04581 0.1088,-0.04581 0.0802,0 0.14314,0.09734 l 0.29775,0.486706 q -0.26339,0.246216 -0.63558,0.389365 -0.37218,0.137423 -0.76727,0.137423 z" style="font-style:normal;font-variant:normal;font-weight:normal;font-stretch:normal;font-family:Lato;-inkscape-font-specification:Lato;fill:#333333;fill-opacity:1;stroke-width:0.99999994" id="path1026"/>
  </g>
  <path style="fill:#333333;fill-rule:nonzero;stroke-width:1.25062358" d="m 129.99601,9.8791294 c -3.62121,0 -5.43241,3.3255216 -5.43241,9.9737456 0,6.68013 1.91145,10.023632 5.74144,10.023632 1.17984,0 2.15242,-0.239631 2.92271,-0.716469 v -5.343722 c 0,-3.240353 -1.09345,-4.858684 -3.28163,-4.858684 -0.30918,0 -0.60701,0.02659 -0.89663,0.07622 v 2.148021 c 0.0844,-0.01591 0.23042,-0.02495 0.43654,-0.02495 0.40777,0 0.69922,0.144332 0.86891,0.432375 0.2221,0.359845 0.33398,1.027728 0.33398,1.99558 v 4.090941 c -0.0676,0.0178 -0.15961,0.02634 -0.28133,0.02634 -2.06647,0 -3.10008,-2.618272 -3.10008,-7.849284 0,-5.199105 1.06508,-7.79662 3.20265,-7.79662 0.32338,0 0.72539,0.0509 1.20426,0.151051 V 10.111945 C 131.16981,9.9568424 130.5948,9.8791274 129.99601,9.8791294 Z m 63.37908,0.0014 c -3.62299,0 -5.4338,3.3255206 -5.4338,9.9737436 0,6.680132 1.81081,10.02225 5.4338,10.02225 0.47885,0 0.9232,-0.0605 1.33454,-0.180153 v -2.09536 c -0.37669,0.06559 -0.66912,0.101163 -0.87169,0.101163 -2.102,0 -3.15134,-2.616888 -3.15134,-7.8479 0,-5.199988 1.03361,-7.798006 3.10007,-7.798006 0.1528,0 0.461,0.04241 0.92296,0.127498 v -2.123071 c -0.41134,-0.1187696 -0.85569,-0.1801526 -1.33454,-0.1801526 z m 33.189,0 c -1.33264,0 -2.35818,0.5997746 -3.07514,1.7918646 -0.95595,1.599793 -1.43432,4.33669 -1.43432,8.20544 0,3.870522 0.47837,6.606644 1.43432,8.208209 0.71696,1.191206 1.7425,1.79048 3.07514,1.79048 1.33264,0 2.34922,-0.599277 3.05018,-1.79048 0.95861,-1.601565 1.43571,-4.337687 1.43571,-8.208209 0,-3.86875 -0.4771,-6.605647 -1.43571,-8.20544 -0.70096,-1.19209 -1.71754,-1.7918646 -3.05018,-1.7918646 z m 22.21469,0 c -1.28289,0 -2.30217,0.3750796 -3.06267,1.1266716 -0.7596,0.749821 -1.14191,1.763313 -1.14191,3.040488 0,0.938605 0.18243,1.820487 0.54047,2.648302 0.35892,0.827815 0.9716,1.863013 1.84314,3.105622 1.47123,2.079287 2.20623,3.827891 2.20623,5.239786 0,0.86947 -0.22414,1.544962 -0.66658,2.019137 -0.39357,0.410362 -0.85543,0.615304 -1.38582,0.615304 -0.68054,0 -1.25545,-0.137608 -1.71565,-0.408816 l -0.9479,1.917976 c 0.71607,0.459995 1.60454,0.691523 2.66355,0.691523 1.28377,0 2.36647,-0.400782 3.25667,-1.20289 1.01014,-0.919108 1.51055,-2.216142 1.51055,-3.888612 0,-1.154864 -0.22098,-2.272047 -0.6652,-3.34537 -0.37491,-0.871242 -1.00698,-1.945355 -1.89719,-3.223416 -0.73383,-1.039643 -1.23022,-1.824879 -1.48698,-2.353122 -0.3918,-0.749818 -0.58897,-1.444807 -0.58897,-2.095358 0,-0.528243 0.14103,-0.951002 0.42267,-1.263869 0.28252,-0.315526 0.64504,-0.475336 1.08926,-0.475336 0.42555,0 0.83703,0.08798 1.23061,0.256377 l 0.92018,-1.891646 c -0.52683,-0.341222 -1.23426,-0.5127426 -2.12446,-0.5127426 z M 60.36688,10.009385 v 19.735459 h 2.61228 v -10.53084 l 1.74335,5.189895 h 1.17657 l 1.74199,-5.189895 V 29.744849 H 70.2852 V 10.009396 h -1.30961 l -3.66688,10.278624 -3.635,-10.278624 z m 23.1141,0 v 19.735459 h 2.61503 V 18.498922 l 4.43323,11.245927 h 1.30822 V 10.009396 H 89.19608 V 21.3357 l -4.4069,-11.326304 z m 11.78915,0 v 19.735459 h 2.61643 V 18.498922 l 4.43324,11.245927 h 1.30684 V 10.009396 h -2.64138 V 21.3357 L 96.57834,10.009396 Z m 11.78779,0 v 19.735459 h 2.72036 V 10.009396 Z m 6.12672,0 v 19.735459 h 2.61364 V 18.498922 l 4.43601,11.245927 h 1.30683 V 10.009396 h -2.64138 V 21.3357 l -4.40829,-11.326304 z m 60.33026,0 v 19.735459 h 6.38033 v -2.170193 h -3.66412 V 10.00939 Z m 8.73621,0 v 19.735459 h 2.71898 V 10.009396 Z m 34.11196,0 v 19.735459 h 2.71897 V 10.009396 Z m 17.25623,0 v 19.735459 h 2.61088 V 18.498922 l 4.43462,11.245927 h 1.30683 V 10.009396 h -2.64137 V 21.3357 l -4.40691,-11.326304 z m -158.05829,0.0014 -2.99893,19.734075 h 2.41133 l 0.46148,-3.500581 h 2.71483 l 0.48781,3.500581 h 2.53744 L 78.17883,10.010785 Z m 65.37883,0 v 19.735459 h 2.71897 v -6.338729 c 1.02435,-0.270326 1.99685,-0.876931 2.91991,-1.818194 1.40017,-1.444687 2.09953,-3.305584 2.09952,-5.570996 0,-2.097013 -0.57981,-3.664828 -1.73921,-4.706242 -0.99237,-0.870361 -2.29971,-1.301287 -3.92465,-1.301287 z m 10.19963,0 v 14.880933 c 0,1.634359 0.41108,2.904694 1.23199,3.809619 0.73206,0.782613 1.65517,1.175176 2.76747,1.175176 1.12829,0 2.05641,-0.392563 2.79381,-1.175176 0.836,-0.904925 1.25558,-2.17526 1.25556,-3.809619 V 10.010776 h -2.71621 v 15.414473 c 0,0.735638 -0.13707,1.295793 -0.41159,1.689314 -0.27186,0.389092 -0.57953,0.588973 -0.92157,0.588973 -0.34293,0 -0.64126,-0.199881 -0.898,-0.588973 -0.25498,-0.393521 -0.38388,-0.953676 -0.38388,-1.689314 V 10.010776 Z m 11.40667,0 v 19.734079 h 2.12863 c 1.67289,0 3.01415,-0.431814 4.02163,-1.301285 1.26514,-1.106117 1.89718,-2.846229 1.89718,-5.216227 0,-1.277175 -0.25916,-2.437876 -0.76911,-3.478406 -0.39357,-0.750707 -0.83793,-1.318852 -1.33455,-1.711488 0.99238,-0.765775 1.48699,-1.918258 1.48699,-3.450692 0,-1.534205 -0.56328,-2.711117 -1.6907,-3.528296 -0.9586,-0.698414 -2.14413,-1.047681 -3.56294,-1.047681 z m 36.62168,0 -2.99753,19.734075 h 2.40854 l 0.46149,-3.500581 h 2.71897 l 0.48366,3.500581 h 2.53744 l -2.99893,-19.734075 z m 6.84317,0 v 2.172969 h 2.63861 v 17.56111 h 2.71481 V 12.183779 h 2.64138 v -2.172965 z m 20.5531,2.045471 c 1.17983,0 1.76969,2.606509 1.76969,7.821567 0,5.215057 -0.58986,7.824339 -1.76969,7.824339 -1.17805,0 -1.76831,-2.609282 -1.76831,-7.824339 0,-5.215058 0.59026,-7.821567 1.76831,-7.821567 z m -61.30312,0.127498 c 1.35218,0.05052 2.02468,0.851081 2.02468,2.403012 0,1.551046 -0.6725,2.343498 -2.02468,2.378068 z m -21.60216,0.02356 c 1.51831,0 2.2769,1.263617 2.2769,3.78606 0,1.551934 -0.31485,2.803674 -0.94651,3.755571 -0.46198,0.702848 -0.90484,1.084761 -1.33039,1.153003 z m -66.86719,3.607289 1.07817,8.25533 h -2.15357 z m 123.6068,0 1.07678,8.25533 h -2.15357 z m -34.03435,3.220645 c 0.97372,0.972284 1.46203,2.368962 1.46203,4.192105 0,1.551932 -0.28436,2.703645 -0.84672,3.453463 -0.44422,0.595603 -1.01568,0.893854 -1.71841,0.893854 v -8.359256 c 0.3749,0 0.74243,-0.06138 1.1031,-0.180153 z" id="path13458-5" inkscape:connector-curvature="0"/>
  <path style="fill:#333333;fill-rule:evenodd;stroke-width:1.25062382" d="M 6.61563,10.002556 H 27.0313 v 21.422245 c 1.16964,-7.059461 2.17372,-14.281173 3.26058,-21.422245 h 20.41664 v 35 H 31.44205 V 14.975074 c -1.57284,9.939206 -3.08918,19.93865 -4.50619,30.027482 H 7.76872 V 13.730487 C 5.69433,24.069982 3.84784,34.626138 1.8202,45.002556 H 0 C 2.18346,33.44276 4.35524,21.870337 6.51825,10.290142 c -0.009,-0.138935 -0.0146,-0.27107 0.0974,-0.287586" id="path13502-8" inkscape:connector-curvature="0"/>
</svg>